# xmcd
#
# Track frame offsets: 
#        150
#        19735
#        33559
#        49118
#        63824
#        83100
#        97766
#        118561
#        137737
#
# Disc length: 2031 seconds
#
# Revision: 0
# Processed by: cddbd v1.5.2PL0 Copyright (c) Steve Scherf et al.
# Submitted via: ExactAudioCopy v0.99pb5
#
DISCID=6907ed09
DTITLE=Ma Guitare S'appelle Revient - Fiers et Susceptibles
DYEAR=2009
DGENRE=Gipsy
TTITLE0=Pasara
TTITLE1=Buscando amor
TTITLE2=Calla
TTITLE3=My soul
TTITLE4=A mis niñas
TTITLE5=Takat
TTITLE6=A mi casa
TTITLE7=Cantique du gitan
TTITLE8=Solamente tu
EXTD=
EXTT0=
EXTT1=
EXTT2=
EXTT3=
EXTT4=
EXTT5=
EXTT6=
EXTT7=
EXTT8=
PLAYORDER=
